<mxfile host="app.diagrams.net" agent="Mozilla/5.0 (Windows NT 10.0; Win64; x64) AppleWebKit/537.36 (KHTML, like Gecko) Chrome/128.0.0.0 Safari/537.36 OPR/114.0.0.0" version="25.0.3">
  <diagram name="Casos de Uso" id="A4cOadyIPQ7dyCeofZ9I">
    <mxGraphModel dx="2220" dy="788" grid="1" gridSize="10" guides="1" tooltips="1" connect="1" arrows="1" fold="1" page="1" pageScale="1" pageWidth="827" pageHeight="1169" math="0" shadow="0">
      <root>
        <mxCell id="0" />
        <mxCell id="1" parent="0" />
        <mxCell id="gZxcKw0YynEc7-aquGhC-1" value="Cliente" style="shape=umlActor;verticalLabelPosition=bottom;verticalAlign=top;html=1;outlineConnect=0;" vertex="1" parent="1">
          <mxGeometry x="-230" y="160" width="30" height="60" as="geometry" />
        </mxCell>
        <mxCell id="gZxcKw0YynEc7-aquGhC-2" value="Admin" style="shape=umlActor;verticalLabelPosition=bottom;verticalAlign=top;html=1;outlineConnect=0;" vertex="1" parent="1">
          <mxGeometry x="1010" y="560" width="30" height="60" as="geometry" />
        </mxCell>
        <mxCell id="gZxcKw0YynEc7-aquGhC-3" value="Funcionário" style="shape=umlActor;verticalLabelPosition=bottom;verticalAlign=top;html=1;outlineConnect=0;" vertex="1" parent="1">
          <mxGeometry x="1010" y="160" width="30" height="60" as="geometry" />
        </mxCell>
        <mxCell id="gZxcKw0YynEc7-aquGhC-5" value="" style="rounded=0;whiteSpace=wrap;html=1;" vertex="1" parent="1">
          <mxGeometry x="-150" y="40" width="1120" height="740" as="geometry" />
        </mxCell>
        <mxCell id="gZxcKw0YynEc7-aquGhC-6" value="Sistema gestão livraria - BookZone" style="text;html=1;align=center;verticalAlign=middle;whiteSpace=wrap;rounded=0;" vertex="1" parent="1">
          <mxGeometry x="120" y="40" width="210" height="30" as="geometry" />
        </mxCell>
        <mxCell id="gZxcKw0YynEc7-aquGhC-7" value="Realizar autenticação" style="ellipse;whiteSpace=wrap;html=1;" vertex="1" parent="1">
          <mxGeometry x="330" y="80" width="140" height="70" as="geometry" />
        </mxCell>
        <mxCell id="gZxcKw0YynEc7-aquGhC-8" value="" style="endArrow=none;html=1;rounded=0;" edge="1" parent="1" source="gZxcKw0YynEc7-aquGhC-1" target="gZxcKw0YynEc7-aquGhC-7">
          <mxGeometry width="50" height="50" relative="1" as="geometry">
            <mxPoint x="390" y="330" as="sourcePoint" />
            <mxPoint x="440" y="280" as="targetPoint" />
          </mxGeometry>
        </mxCell>
        <mxCell id="gZxcKw0YynEc7-aquGhC-9" value="" style="endArrow=none;html=1;rounded=0;" edge="1" parent="1" source="gZxcKw0YynEc7-aquGhC-3" target="gZxcKw0YynEc7-aquGhC-7">
          <mxGeometry width="50" height="50" relative="1" as="geometry">
            <mxPoint x="390" y="330" as="sourcePoint" />
            <mxPoint x="440" y="280" as="targetPoint" />
          </mxGeometry>
        </mxCell>
        <mxCell id="gZxcKw0YynEc7-aquGhC-11" value="cadastro de livros" style="ellipse;whiteSpace=wrap;html=1;" vertex="1" parent="1">
          <mxGeometry x="450" y="690" width="140" height="70" as="geometry" />
        </mxCell>
        <mxCell id="gZxcKw0YynEc7-aquGhC-13" value="edição de livros" style="ellipse;whiteSpace=wrap;html=1;" vertex="1" parent="1">
          <mxGeometry x="620" y="690" width="140" height="70" as="geometry" />
        </mxCell>
        <mxCell id="gZxcKw0YynEc7-aquGhC-14" value="exclusão de livros" style="ellipse;whiteSpace=wrap;html=1;" vertex="1" parent="1">
          <mxGeometry x="790" y="690" width="140" height="70" as="geometry" />
        </mxCell>
        <mxCell id="gZxcKw0YynEc7-aquGhC-16" value="" style="endArrow=none;html=1;rounded=0;" edge="1" parent="1" source="gZxcKw0YynEc7-aquGhC-11" target="gZxcKw0YynEc7-aquGhC-2">
          <mxGeometry width="50" height="50" relative="1" as="geometry">
            <mxPoint x="390" y="430" as="sourcePoint" />
            <mxPoint x="440" y="380" as="targetPoint" />
          </mxGeometry>
        </mxCell>
        <mxCell id="gZxcKw0YynEc7-aquGhC-17" value="" style="endArrow=none;html=1;rounded=0;" edge="1" parent="1" source="gZxcKw0YynEc7-aquGhC-13" target="gZxcKw0YynEc7-aquGhC-2">
          <mxGeometry width="50" height="50" relative="1" as="geometry">
            <mxPoint x="390" y="430" as="sourcePoint" />
            <mxPoint x="440" y="380" as="targetPoint" />
          </mxGeometry>
        </mxCell>
        <mxCell id="gZxcKw0YynEc7-aquGhC-18" value="" style="endArrow=none;html=1;rounded=0;" edge="1" parent="1" source="gZxcKw0YynEc7-aquGhC-14" target="gZxcKw0YynEc7-aquGhC-2">
          <mxGeometry width="50" height="50" relative="1" as="geometry">
            <mxPoint x="390" y="430" as="sourcePoint" />
            <mxPoint x="440" y="380" as="targetPoint" />
          </mxGeometry>
        </mxCell>
        <mxCell id="gZxcKw0YynEc7-aquGhC-19" value="Registrar informações de Funcionários" style="ellipse;whiteSpace=wrap;html=1;" vertex="1" parent="1">
          <mxGeometry x="620" y="580" width="140" height="70" as="geometry" />
        </mxCell>
        <mxCell id="gZxcKw0YynEc7-aquGhC-20" value="" style="endArrow=none;html=1;rounded=0;" edge="1" parent="1" source="gZxcKw0YynEc7-aquGhC-19" target="gZxcKw0YynEc7-aquGhC-2">
          <mxGeometry width="50" height="50" relative="1" as="geometry">
            <mxPoint x="390" y="430" as="sourcePoint" />
            <mxPoint x="440" y="380" as="targetPoint" />
          </mxGeometry>
        </mxCell>
        <mxCell id="gZxcKw0YynEc7-aquGhC-21" value="Extends" style="endArrow=block;endSize=16;endFill=0;html=1;rounded=0;" edge="1" parent="1" source="gZxcKw0YynEc7-aquGhC-2" target="gZxcKw0YynEc7-aquGhC-3">
          <mxGeometry width="160" relative="1" as="geometry">
            <mxPoint x="330" y="410" as="sourcePoint" />
            <mxPoint x="490" y="410" as="targetPoint" />
          </mxGeometry>
        </mxCell>
        <mxCell id="gZxcKw0YynEc7-aquGhC-22" value="Registrar Venda" style="ellipse;whiteSpace=wrap;html=1;" vertex="1" parent="1">
          <mxGeometry x="447" y="220" width="140" height="70" as="geometry" />
        </mxCell>
        <mxCell id="gZxcKw0YynEc7-aquGhC-23" value="Emissão de recibo" style="ellipse;whiteSpace=wrap;html=1;" vertex="1" parent="1">
          <mxGeometry x="230" y="280" width="140" height="70" as="geometry" />
        </mxCell>
        <mxCell id="gZxcKw0YynEc7-aquGhC-24" value="&amp;lt;&amp;lt;include&amp;gt;&amp;gt;" style="html=1;verticalAlign=bottom;labelBackgroundColor=none;endArrow=open;endFill=0;dashed=1;rounded=0;" edge="1" parent="1" source="gZxcKw0YynEc7-aquGhC-22" target="gZxcKw0YynEc7-aquGhC-23">
          <mxGeometry width="160" relative="1" as="geometry">
            <mxPoint x="330" y="410" as="sourcePoint" />
            <mxPoint x="490" y="410" as="targetPoint" />
          </mxGeometry>
        </mxCell>
        <mxCell id="gZxcKw0YynEc7-aquGhC-25" value="" style="endArrow=none;html=1;rounded=0;" edge="1" parent="1" source="gZxcKw0YynEc7-aquGhC-22" target="gZxcKw0YynEc7-aquGhC-3">
          <mxGeometry width="50" height="50" relative="1" as="geometry">
            <mxPoint x="390" y="430" as="sourcePoint" />
            <mxPoint x="440" y="380" as="targetPoint" />
          </mxGeometry>
        </mxCell>
        <mxCell id="gZxcKw0YynEc7-aquGhC-26" value="Atualização de estoque" style="ellipse;whiteSpace=wrap;html=1;" vertex="1" parent="1">
          <mxGeometry x="230" y="170" width="140" height="70" as="geometry" />
        </mxCell>
        <mxCell id="gZxcKw0YynEc7-aquGhC-27" value="&amp;lt;&amp;lt;include&amp;gt;&amp;gt;" style="html=1;verticalAlign=bottom;labelBackgroundColor=none;endArrow=open;endFill=0;dashed=1;rounded=0;" edge="1" parent="1" source="gZxcKw0YynEc7-aquGhC-22" target="gZxcKw0YynEc7-aquGhC-26">
          <mxGeometry width="160" relative="1" as="geometry">
            <mxPoint x="330" y="410" as="sourcePoint" />
            <mxPoint x="490" y="410" as="targetPoint" />
          </mxGeometry>
        </mxCell>
        <mxCell id="gZxcKw0YynEc7-aquGhC-28" value="Configurar promoções de livros" style="ellipse;whiteSpace=wrap;html=1;" vertex="1" parent="1">
          <mxGeometry x="447" y="320" width="140" height="70" as="geometry" />
        </mxCell>
        <mxCell id="gZxcKw0YynEc7-aquGhC-29" value="" style="endArrow=none;html=1;rounded=0;" edge="1" parent="1" source="gZxcKw0YynEc7-aquGhC-28" target="gZxcKw0YynEc7-aquGhC-3">
          <mxGeometry width="50" height="50" relative="1" as="geometry">
            <mxPoint x="390" y="430" as="sourcePoint" />
            <mxPoint x="440" y="380" as="targetPoint" />
          </mxGeometry>
        </mxCell>
        <mxCell id="gZxcKw0YynEc7-aquGhC-30" value="cadastro de clientes" style="ellipse;whiteSpace=wrap;html=1;" vertex="1" parent="1">
          <mxGeometry x="470" y="450" width="140" height="70" as="geometry" />
        </mxCell>
        <mxCell id="gZxcKw0YynEc7-aquGhC-31" value="edição de clientes" style="ellipse;whiteSpace=wrap;html=1;" vertex="1" parent="1">
          <mxGeometry x="640" y="450" width="140" height="70" as="geometry" />
        </mxCell>
        <mxCell id="gZxcKw0YynEc7-aquGhC-32" value="exclusão de clientes" style="ellipse;whiteSpace=wrap;html=1;" vertex="1" parent="1">
          <mxGeometry x="810" y="450" width="140" height="70" as="geometry" />
        </mxCell>
        <mxCell id="gZxcKw0YynEc7-aquGhC-33" value="" style="endArrow=none;html=1;rounded=0;" edge="1" parent="1" source="gZxcKw0YynEc7-aquGhC-30" target="gZxcKw0YynEc7-aquGhC-3">
          <mxGeometry width="50" height="50" relative="1" as="geometry">
            <mxPoint x="390" y="430" as="sourcePoint" />
            <mxPoint x="440" y="380" as="targetPoint" />
          </mxGeometry>
        </mxCell>
        <mxCell id="gZxcKw0YynEc7-aquGhC-34" value="" style="endArrow=none;html=1;rounded=0;" edge="1" parent="1" source="gZxcKw0YynEc7-aquGhC-31" target="gZxcKw0YynEc7-aquGhC-3">
          <mxGeometry width="50" height="50" relative="1" as="geometry">
            <mxPoint x="390" y="430" as="sourcePoint" />
            <mxPoint x="440" y="380" as="targetPoint" />
          </mxGeometry>
        </mxCell>
        <mxCell id="gZxcKw0YynEc7-aquGhC-35" value="" style="endArrow=none;html=1;rounded=0;" edge="1" parent="1" source="gZxcKw0YynEc7-aquGhC-32" target="gZxcKw0YynEc7-aquGhC-3">
          <mxGeometry width="50" height="50" relative="1" as="geometry">
            <mxPoint x="390" y="430" as="sourcePoint" />
            <mxPoint x="440" y="380" as="targetPoint" />
          </mxGeometry>
        </mxCell>
        <mxCell id="gZxcKw0YynEc7-aquGhC-36" value="Adicionar livro ao carrinho" style="ellipse;whiteSpace=wrap;html=1;" vertex="1" parent="1">
          <mxGeometry x="-40" y="260" width="140" height="70" as="geometry" />
        </mxCell>
        <mxCell id="gZxcKw0YynEc7-aquGhC-37" value="" style="endArrow=none;html=1;rounded=0;" edge="1" parent="1" source="gZxcKw0YynEc7-aquGhC-36" target="gZxcKw0YynEc7-aquGhC-1">
          <mxGeometry width="50" height="50" relative="1" as="geometry">
            <mxPoint x="390" y="430" as="sourcePoint" />
            <mxPoint x="440" y="380" as="targetPoint" />
          </mxGeometry>
        </mxCell>
        <mxCell id="gZxcKw0YynEc7-aquGhC-38" value="Finalizar compra" style="ellipse;whiteSpace=wrap;html=1;" vertex="1" parent="1">
          <mxGeometry x="100" y="430" width="140" height="70" as="geometry" />
        </mxCell>
        <mxCell id="gZxcKw0YynEc7-aquGhC-40" value="&amp;lt;&amp;lt;extend&amp;gt;&amp;gt;" style="html=1;verticalAlign=bottom;labelBackgroundColor=none;endArrow=open;endFill=0;dashed=1;rounded=0;" edge="1" parent="1" source="gZxcKw0YynEc7-aquGhC-38" target="gZxcKw0YynEc7-aquGhC-36">
          <mxGeometry width="160" relative="1" as="geometry">
            <mxPoint x="330" y="410" as="sourcePoint" />
            <mxPoint x="490" y="410" as="targetPoint" />
          </mxGeometry>
        </mxCell>
        <mxCell id="gZxcKw0YynEc7-aquGhC-41" value="Visualizar histórico de compras" style="ellipse;whiteSpace=wrap;html=1;" vertex="1" parent="1">
          <mxGeometry x="-40" y="500" width="140" height="70" as="geometry" />
        </mxCell>
        <mxCell id="gZxcKw0YynEc7-aquGhC-42" value="" style="endArrow=none;html=1;rounded=0;" edge="1" parent="1" source="gZxcKw0YynEc7-aquGhC-41" target="gZxcKw0YynEc7-aquGhC-1">
          <mxGeometry width="50" height="50" relative="1" as="geometry">
            <mxPoint x="390" y="430" as="sourcePoint" />
            <mxPoint x="440" y="380" as="targetPoint" />
          </mxGeometry>
        </mxCell>
      </root>
    </mxGraphModel>
  </diagram>
</mxfile>
